<svg width="85" height="85" viewBox="0 0 85 85" fill="none" xmlns="http://www.w3.org/2000/svg">
<mask id="mask0_1_197" style="mask-type:alpha" maskUnits="userSpaceOnUse" x="0" y="0" width="85" height="85">
<rect width="85" height="85" fill="#C4C4C4"/>
</mask>
<g mask="url(#mask0_1_197)">
<mask id="mask1_1_197" style="mask-type:alpha" maskUnits="userSpaceOnUse" x="3" y="-8" width="79" height="79">
<rect x="3" y="-8" width="79" height="79" fill="#C4C4C4"/>
</mask>
<g mask="url(#mask1_1_197)">
<path fill-rule="evenodd" clip-rule="evenodd" d="M31.1055 27.6836L8.6521 12.9732L12.3636 7.93359L42.5092 27.6836L12.3636 47.4336L8.6521 42.394L31.1055 27.6836Z" fill="#F74746"/>
<path fill-rule="evenodd" clip-rule="evenodd" d="M76.3745 47.4397H36.4998V41.7969L76.3745 41.7969V47.4397Z" fill="#F5A22E"/>
</g>
</g>
<path d="M5 71.9165L9.52505 60.6441H12.2626L16.7555 71.9165H13.3093L11.5058 66.9889C11.3877 66.6561 11.2857 66.3716 11.1998 66.1354C11.1139 65.8992 11.0388 65.6791 10.9744 65.4751C10.9099 65.2604 10.8455 65.035 10.7811 64.7988C10.7167 64.5519 10.6523 64.262 10.5879 63.9292H11.1354C11.071 64.262 11.0066 64.5519 10.9421 64.7988C10.8777 65.035 10.808 65.2604 10.7328 65.4751C10.6684 65.6791 10.5879 65.8992 10.4913 66.1354C10.4054 66.3716 10.3034 66.6561 10.1853 66.9889L8.38171 71.9165H5ZM7.25447 70.2417L8.26899 67.8745H13.5026L14.4205 70.2417H7.25447Z" fill="white"/>
<path d="M20.8924 72.0775C20.0228 72.0775 19.2445 71.8843 18.5574 71.4978C17.8811 71.1113 17.3443 70.5853 16.9471 69.9197C16.5606 69.2433 16.3673 68.4704 16.3673 67.6008C16.3673 66.7312 16.5606 65.9636 16.9471 65.298C17.3443 64.6217 17.8811 64.0903 18.5574 63.7038C19.2445 63.3173 20.0228 63.1241 20.8924 63.1241C21.6654 63.1241 22.3793 63.2421 23.0341 63.4783C23.689 63.7145 24.2204 64.058 24.6284 64.5089L22.857 66.6024C22.7389 66.4736 22.5994 66.3555 22.4383 66.2481C22.2773 66.1408 22.0948 66.0602 21.8908 66.0066C21.6868 65.9421 21.4506 65.9099 21.1823 65.9099C20.8602 65.9099 20.5757 65.9797 20.3288 66.1193C20.0926 66.2588 19.9101 66.4575 19.7813 66.7151C19.6524 66.962 19.588 67.2519 19.588 67.5847C19.588 67.9068 19.6471 68.1966 19.7652 68.4543C19.894 68.7012 20.0765 68.8998 20.3127 69.0501C20.5596 69.2004 20.8495 69.2755 21.1823 69.2755C21.4506 69.2755 21.6868 69.2487 21.8908 69.195C22.0948 69.1413 22.2773 69.0662 22.4383 68.9696C22.5994 68.8622 22.7389 68.7388 22.857 68.5992L24.6123 70.7087C24.2151 71.1489 23.689 71.4871 23.0341 71.7233C22.3793 71.9594 21.6654 72.0775 20.8924 72.0775Z" fill="white"/>
<path d="M28.7466 72.0614C28.0273 72.0614 27.3885 71.8736 26.8303 71.4978C26.272 71.1113 25.8319 70.5853 25.5098 69.9197C25.1877 69.2433 25.0267 68.4704 25.0267 67.6008C25.0267 66.7205 25.1824 65.9475 25.4937 65.2819C25.8158 64.6056 26.2559 64.0795 26.8142 63.7038C27.3831 63.3173 28.038 63.1241 28.7788 63.1241C29.1653 63.1241 29.5195 63.1777 29.8416 63.2851C30.1637 63.3924 30.4482 63.5427 30.6951 63.736C30.942 63.9292 31.1567 64.1547 31.3392 64.4123C31.5217 64.6592 31.6774 64.9276 31.8062 65.2175L31.146 65.2014V63.3012H34.3505V71.9165H31.0655V69.807L31.7901 69.8714C31.6827 70.1827 31.5324 70.4726 31.3392 70.741C31.1567 71.0093 30.9366 71.2402 30.679 71.4334C30.4213 71.6266 30.1315 71.7823 29.8094 71.9004C29.4873 72.0078 29.133 72.0614 28.7466 72.0614ZM29.6806 69.4044C29.9919 69.4044 30.2549 69.3346 30.4696 69.195C30.6951 69.0555 30.8615 68.8515 30.9688 68.5831C31.0869 68.3147 31.146 67.9873 31.146 67.6008C31.146 67.2143 31.0869 66.8869 30.9688 66.6185C30.8615 66.3394 30.6951 66.13 30.4696 65.9905C30.2549 65.8509 29.9919 65.7811 29.6806 65.7811C29.3692 65.7811 29.1062 65.8509 28.8915 65.9905C28.6768 66.13 28.5104 66.3394 28.3923 66.6185C28.2849 66.8869 28.2313 67.2143 28.2313 67.6008C28.2313 67.9873 28.2849 68.3147 28.3923 68.5831C28.5104 68.8515 28.6768 69.0555 28.8915 69.195C29.1062 69.3346 29.3692 69.4044 29.6806 69.4044Z" fill="white"/>
<path d="M39.3862 72.0936C38.6777 72.0936 38.0443 71.9058 37.486 71.53C36.9385 71.1435 36.5037 70.6175 36.1817 69.9519C35.8703 69.2755 35.7147 68.4972 35.7147 67.6169C35.7147 66.7473 35.8757 65.9744 36.1978 65.298C36.5198 64.6217 36.96 64.0903 37.5182 63.7038C38.0872 63.3173 38.7367 63.1241 39.4668 63.1241C39.8318 63.1241 40.1807 63.1777 40.5135 63.2851C40.8463 63.3817 41.1469 63.5266 41.4153 63.7199C41.6837 63.9024 41.9091 64.1225 42.0916 64.3801C42.2848 64.627 42.4137 64.8954 42.4781 65.1853L41.7534 65.4107V60H45.0385V71.9165H42.0916L41.834 70.0163L42.4942 70.1612C42.4405 70.4404 42.3224 70.698 42.1399 70.9342C41.9574 71.1704 41.7266 71.3744 41.4475 71.5461C41.1791 71.7179 40.8678 71.8521 40.5135 71.9487C40.1592 72.0453 39.7835 72.0936 39.3862 72.0936ZM40.3685 69.4366C40.6799 69.4366 40.9429 69.3668 41.1576 69.2272C41.3831 69.0769 41.5495 68.8676 41.6568 68.5992C41.7749 68.3308 41.834 68.0034 41.834 67.6169C41.834 67.2304 41.7749 66.903 41.6568 66.6346C41.5495 66.3555 41.3831 66.1461 41.1576 66.0066C40.9429 65.867 40.6799 65.7972 40.3685 65.7972C40.0572 65.7972 39.7942 65.867 39.5795 66.0066C39.3648 66.1461 39.1984 66.3555 39.0803 66.6346C38.9729 66.903 38.9192 67.2304 38.9192 67.6169C38.9192 68.0034 38.9729 68.3308 39.0803 68.5992C39.1984 68.8676 39.3648 69.0769 39.5795 69.2272C39.7942 69.3668 40.0572 69.4366 40.3685 69.4366Z" fill="white"/>
<path d="M51.0603 72.0775C50.0619 72.0775 49.203 71.8843 48.4838 71.4978C47.7645 71.1113 47.2116 70.5853 46.8251 69.9197C46.4386 69.2433 46.2454 68.4704 46.2454 67.6008C46.2454 66.9567 46.3528 66.3608 46.5675 65.8133C46.7822 65.2658 47.0828 64.7934 47.4693 64.3962C47.8665 63.9883 48.3281 63.6769 48.8541 63.4622C49.3909 63.2368 49.976 63.1241 50.6094 63.1241C51.2428 63.1241 51.8172 63.2368 52.3325 63.4622C52.8585 63.6769 53.3094 63.9883 53.6852 64.3962C54.0609 64.7934 54.3454 65.2658 54.5386 65.8133C54.7426 66.3608 54.8339 66.9567 54.8124 67.6008L54.7963 68.2771H48.049L47.6786 66.7473H52.2036L51.8977 67.0694V66.7795C51.8977 66.5755 51.844 66.3984 51.7366 66.2481C51.64 66.0871 51.5005 65.9636 51.318 65.8777C51.1355 65.7918 50.9207 65.7489 50.6738 65.7489C50.3625 65.7489 50.0995 65.8133 49.8848 65.9421C49.6701 66.071 49.5036 66.2535 49.3856 66.4897C49.2782 66.7258 49.2245 67.0103 49.2245 67.3431C49.2245 67.7296 49.305 68.0678 49.4661 68.3577C49.6378 68.6475 49.8848 68.873 50.2068 69.034C50.5396 69.195 50.9476 69.2755 51.4307 69.2755C51.7528 69.2755 52.0265 69.238 52.252 69.1628C52.4881 69.0769 52.7351 68.9427 52.9927 68.7602L54.4903 70.8698C54.0931 71.1811 53.7013 71.4227 53.3148 71.5944C52.939 71.7662 52.5633 71.8897 52.1875 71.9648C51.8225 72.04 51.4468 72.0775 51.0603 72.0775Z" fill="white"/>
<path d="M56.0835 71.9165V63.3012H59.111L59.2398 64.6539L58.8694 64.525C59.0305 64.2459 59.213 64.0205 59.417 63.8487C59.6317 63.6662 59.8571 63.5213 60.0933 63.4139C60.3295 63.3066 60.571 63.2314 60.8179 63.1885C61.0649 63.1455 61.301 63.1241 61.5265 63.1241C61.9022 63.1241 62.2565 63.1777 62.5893 63.2851C62.9221 63.3817 63.2227 63.5588 63.4911 63.8165C63.7595 64.0742 63.9849 64.4445 64.1674 64.9276L63.6682 64.9115L63.7971 64.6861C63.9581 64.407 64.1513 64.1708 64.3768 63.9775C64.6022 63.7843 64.8492 63.6233 65.1175 63.4944C65.3859 63.3656 65.6597 63.2744 65.9388 63.2207C66.2179 63.1563 66.4863 63.1241 66.744 63.1241C67.4525 63.1241 68.0484 63.2582 68.5315 63.5266C69.0146 63.795 69.3742 64.1922 69.6104 64.7183C69.8573 65.2336 69.9808 65.8616 69.9808 66.6024V71.9165H66.7118V66.8761C66.7118 66.64 66.6742 66.4413 66.5991 66.2803C66.5239 66.1193 66.4112 65.9958 66.2609 65.9099C66.1213 65.8241 65.9496 65.7811 65.7456 65.7811C65.5845 65.7811 65.4342 65.8079 65.2947 65.8616C65.1659 65.9046 65.0531 65.9744 64.9565 66.071C64.8706 66.1676 64.8008 66.2749 64.7472 66.393C64.6935 66.5111 64.6666 66.6453 64.6666 66.7956V71.9165H61.3977V66.8761C61.3977 66.64 61.3601 66.4413 61.2849 66.2803C61.2098 66.1193 61.0971 65.9958 60.9468 65.9099C60.8072 65.8241 60.6354 65.7811 60.4315 65.7811C60.2704 65.7811 60.1201 65.8079 59.9806 65.8616C59.8517 65.9046 59.739 65.9744 59.6424 66.071C59.5565 66.1676 59.4867 66.2749 59.4331 66.393C59.3794 66.5111 59.3525 66.6453 59.3525 66.7956V71.9165H56.0835Z" fill="white"/>
<path d="M72.5779 75.6203L74.7197 70.5638L74.7519 71.8843L70.7099 63.3012H74.3493L75.541 66.1676C75.6698 66.4682 75.7771 66.7527 75.863 67.0211C75.9596 67.2895 76.0294 67.5417 76.0724 67.7779L75.7503 68.0678C75.7932 67.9497 75.8577 67.7672 75.9435 67.5203C76.0294 67.2626 76.126 66.9674 76.2334 66.6346L77.3606 63.3012H81L77.2479 71.9165L75.7342 75.6203H72.5779Z" fill="white"/>
</svg>
