<svg width="157" height="41" viewBox="0 0 157 41" fill="none" xmlns="http://www.w3.org/2000/svg">
<path d="M37.0627 19.9868C37.0627 25.5071 34.8248 30.502 31.2099 34.1169C30.7561 34.5707 30.2867 34.9996 29.7956 35.4006C26.3424 38.2571 21.91 39.9697 17.0798 39.9697H0V0.00390625H17.0798C20.5113 0.00390625 23.7346 0.867993 26.5537 2.38793C32.8106 5.76037 37.0627 12.3778 37.0627 19.9868Z" fill="#F74746"/>
<path d="M50.7726 22.9305C50.7726 25.2461 49.6287 27.3038 47.8757 28.5658C46.7349 29.3926 45.3331 29.8743 43.8256 29.8774H42.9895V15.9805L43.8256 15.9836C47.6581 15.9836 50.7726 19.098 50.7726 22.9305Z" fill="#97E7E7"/>
<path d="M43.0601 10.125V24.0189H43.0414C39.2121 24.0189 36.0945 20.9013 36.0945 17.0719C36.0945 13.2426 39.2121 10.1281 43.0414 10.125H43.0601Z" fill="#97E7E7"/>
<path d="M43.1418 15.9805H44.2981C45.7652 15.9805 46.9556 17.1709 46.9556 18.638V27.3318C46.9556 28.7367 45.818 29.8743 44.4131 29.8743H43.1387C43.0548 29.8743 42.9895 29.8059 42.9895 29.7251V16.1297C42.9926 16.0457 43.061 15.9805 43.1418 15.9805Z" fill="url(#paint0_linear_1_207)"/>
<path d="M60.8886 22.9337C60.8886 30.9499 55.3373 37.6917 47.8744 39.5131C46.5782 39.8302 45.2199 39.998 43.8243 39.998L42.9882 40.0011V29.8776H43.8243C45.3349 29.8745 46.7368 29.3927 47.8744 28.5659C49.6274 27.3039 50.7713 25.2463 50.7713 22.9306C50.7713 20.6088 49.6274 18.5542 47.8744 17.2954C47.7314 17.1866 47.5853 17.0903 47.4361 17.0001C47.3584 16.9566 47.2807 16.9069 47.1999 16.8633C47.1253 16.8229 47.0507 16.7825 46.973 16.7452C46.8176 16.6644 46.6559 16.5898 46.4912 16.5214C46.4104 16.4872 46.3234 16.4531 46.2394 16.4251C46.1648 16.394 46.0903 16.366 46.0125 16.3443C46.0001 16.3412 45.9877 16.3381 45.9752 16.3318C45.8975 16.307 45.8198 16.279 45.739 16.2603C45.4779 16.1826 45.2075 16.1236 44.9309 16.077C44.8407 16.0614 44.7506 16.0459 44.6605 16.0397C44.6014 16.0334 44.5361 16.0241 44.4771 16.021C44.4211 16.0148 44.3652 16.0086 44.3061 16.0055C44.2377 15.9993 44.1725 15.993 44.101 15.993C44.0077 15.9899 43.9145 15.9868 43.8212 15.9868L43.0566 15.9837L42.9851 15.9868V5.86328H43.8212C44.1693 5.86328 44.5175 5.87571 44.8594 5.89747C45.2044 5.91612 45.5463 5.9472 45.882 5.99072C46.2084 6.02802 46.5285 6.08085 46.8456 6.13991C46.8797 6.14302 46.917 6.15234 46.9512 6.15856C54.871 7.62876 60.8886 14.5912 60.8886 22.9337Z" fill="#F5A22E"/>
<path d="M47.8713 28.5703V39.5113C46.572 39.8315 45.2168 39.9993 43.8212 39.9993L42.9851 40.0024V29.8789H43.8212C45.3318 29.8758 46.7305 29.394 47.8713 28.5703Z" fill="url(#paint1_linear_1_207)"/>
<path d="M47.8744 6.3583V17.2993C47.7314 17.1905 47.5853 17.0942 47.4361 17.004C47.3584 16.9605 47.2807 16.9108 47.1999 16.8673C47.1253 16.8269 47.0507 16.7865 46.973 16.7492C46.8176 16.6683 46.6559 16.5938 46.4912 16.5254C46.4104 16.4912 46.3234 16.457 46.2394 16.429C46.1648 16.3979 46.0903 16.3731 46.0125 16.3482C46.0001 16.3451 45.9877 16.342 45.9752 16.3358C45.8975 16.3109 45.8198 16.286 45.739 16.2643C45.4779 16.1866 45.2075 16.1275 44.9309 16.0809C44.8407 16.0654 44.7506 16.056 44.6605 16.0436C44.6014 16.0374 44.5361 16.0281 44.4771 16.0249C44.4211 16.0187 44.3652 16.0125 44.3061 16.0094C44.2377 16.0032 44.1725 15.997 44.101 15.997C44.0077 15.9939 43.9145 15.9908 43.8212 15.9908L43.0566 15.9876H42.9851V5.86719L43.8212 5.8703C44.1694 5.8703 44.5175 5.88273 44.8594 5.90138C45.2044 5.92314 45.5432 5.95422 45.882 5.99463C46.5627 6.07233 47.2217 6.19667 47.8744 6.3583Z" fill="url(#paint2_linear_1_207)"/>
<path d="M36.086 17.0705C36.086 20.8999 39.2036 24.0174 43.033 24.0174H43.8691V34.141H43.033C33.6212 34.1379 25.9656 26.4792 25.9656 17.0705C25.9656 7.65872 33.6181 0 43.033 0H43.8691V10.1236H43.033C39.2036 10.1298 36.086 13.2411 36.086 17.0705Z" fill="#0074F0"/>
<path d="M69 28.8133V15.7467H74.8803C75.8859 15.7467 76.8086 15.9084 77.6487 16.232C78.4887 16.5556 79.2206 17.0098 79.8443 17.5947C80.4679 18.1671 80.9452 18.8516 81.2762 19.648C81.6198 20.4444 81.7916 21.3218 81.7916 22.28C81.7916 23.2258 81.6198 24.1031 81.2762 24.912C80.9452 25.7084 80.4679 26.3991 79.8443 26.984C79.2206 27.5564 78.4887 28.0044 77.6487 28.328C76.8086 28.6516 75.8859 28.8133 74.8803 28.8133H69ZM73.1239 26.3307L72.4175 25.3787H74.7849C75.2049 25.3787 75.5867 25.304 75.9304 25.1547C76.2741 24.9929 76.5732 24.7751 76.8277 24.5013C77.0823 24.2276 77.2796 23.904 77.4196 23.5307C77.5596 23.1449 77.6296 22.728 77.6296 22.28C77.6296 21.832 77.5596 21.4213 77.4196 21.048C77.2796 20.6622 77.0823 20.3324 76.8277 20.0587C76.5732 19.7849 76.2741 19.5733 75.9304 19.424C75.5867 19.2622 75.2049 19.1813 74.7849 19.1813H72.3602L73.1239 18.2667V26.3307Z" fill="white"/>
<path d="M88.551 29C87.3673 29 86.349 28.776 85.4962 28.328C84.6435 27.88 83.988 27.2702 83.5298 26.4987C83.0716 25.7147 82.8425 24.8187 82.8425 23.8107C82.8425 23.064 82.9697 22.3733 83.2243 21.7387C83.4789 21.104 83.8352 20.5564 84.2934 20.096C84.7644 19.6231 85.3117 19.2622 85.9354 19.0133C86.5718 18.752 87.2654 18.6213 88.0164 18.6213C88.7673 18.6213 89.4483 18.752 90.0592 19.0133C90.6829 19.2622 91.2175 19.6231 91.663 20.096C92.1084 20.5564 92.4457 21.104 92.6748 21.7387C92.9167 22.3733 93.0249 23.064 92.9994 23.8107L92.9803 24.5947H84.9808L84.5416 22.8213H89.9065L89.5437 23.1947V22.8587C89.5437 22.6222 89.4801 22.4169 89.3528 22.2427C89.2383 22.056 89.0728 21.9129 88.8564 21.8133C88.6401 21.7138 88.3855 21.664 88.0928 21.664C87.7236 21.664 87.4118 21.7387 87.1572 21.888C86.9027 22.0373 86.7054 22.2489 86.5654 22.5227C86.4381 22.7964 86.3745 23.1262 86.3745 23.512C86.3745 23.96 86.4699 24.352 86.6609 24.688C86.8645 25.024 87.1572 25.2853 87.5391 25.472C87.9337 25.6587 88.4173 25.752 88.9901 25.752C89.3719 25.752 89.6965 25.7084 89.9638 25.6213C90.2438 25.5218 90.5365 25.3662 90.842 25.1547L92.6176 27.6C92.1466 27.9609 91.6821 28.2409 91.2238 28.44C90.7784 28.6391 90.3329 28.7822 89.8874 28.8693C89.4547 28.9564 89.0092 29 88.551 29Z" fill="white"/>
<path d="M97.3175 28.8133L93.0791 18.8267H97.3938L99.5131 26.2747H98.4821L100.582 18.8267H104.897L100.449 28.8133H97.3175Z" fill="white"/>
<path d="M109.441 29C108.334 29 107.367 28.8382 106.539 28.5147C105.725 28.1787 105.088 27.7618 104.63 27.264L106.883 25.3787C107.29 25.7271 107.755 25.9884 108.277 26.1627C108.811 26.3244 109.257 26.4053 109.613 26.4053C109.74 26.4053 109.849 26.3991 109.938 26.3867C110.04 26.3618 110.116 26.3307 110.167 26.2933C110.23 26.2436 110.275 26.1938 110.3 26.144C110.339 26.0942 110.358 26.032 110.358 25.9573C110.358 25.7707 110.256 25.6338 110.052 25.5467C109.938 25.4969 109.747 25.4347 109.48 25.36C109.225 25.2853 108.888 25.1982 108.468 25.0987C107.971 24.9742 107.513 24.8187 107.093 24.632C106.686 24.4453 106.336 24.2276 106.043 23.9787C105.737 23.7049 105.496 23.3938 105.317 23.0453C105.152 22.6969 105.069 22.3049 105.069 21.8693C105.069 21.3591 105.19 20.9049 105.432 20.5067C105.674 20.1084 106.005 19.7724 106.425 19.4987C106.845 19.2124 107.316 18.9947 107.838 18.8453C108.359 18.696 108.894 18.6213 109.441 18.6213C110.065 18.6213 110.644 18.6836 111.179 18.808C111.726 18.92 112.235 19.088 112.706 19.312C113.19 19.5236 113.629 19.7787 114.023 20.0773L112.057 22.224C111.841 22.0498 111.586 21.8818 111.293 21.72C111.013 21.5582 110.714 21.4276 110.396 21.328C110.09 21.216 109.804 21.16 109.537 21.16C109.397 21.16 109.276 21.1724 109.174 21.1973C109.085 21.2098 109.009 21.2409 108.945 21.2907C108.881 21.328 108.83 21.3778 108.792 21.44C108.767 21.4898 108.754 21.552 108.754 21.6267C108.754 21.7262 108.786 21.8196 108.85 21.9067C108.913 21.9938 109.015 22.0684 109.155 22.1307C109.27 22.1804 109.46 22.2489 109.728 22.336C110.008 22.4231 110.415 22.5413 110.95 22.6907C111.522 22.8524 112.025 23.0391 112.458 23.2507C112.903 23.4622 113.26 23.7111 113.527 23.9973C113.705 24.1964 113.845 24.4204 113.947 24.6693C114.049 24.9182 114.1 25.1858 114.1 25.472C114.1 26.1564 113.896 26.7662 113.489 27.3013C113.094 27.824 112.547 28.2409 111.847 28.552C111.147 28.8507 110.345 29 109.441 29Z" fill="white"/>
<path d="M115.872 28.8133V16.3067H119.748V28.8133H115.872ZM114.288 22V18.8267H121.428V22H114.288Z" fill="white"/>
<path d="M127.753 29C126.646 29 125.659 28.776 124.794 28.328C123.928 27.88 123.247 27.2702 122.751 26.4987C122.255 25.7147 122.006 24.8187 122.006 23.8107C122.006 22.8027 122.255 21.9129 122.751 21.1413C123.247 20.3573 123.928 19.7413 124.794 19.2933C125.659 18.8453 126.646 18.6213 127.753 18.6213C128.86 18.6213 129.841 18.8453 130.693 19.2933C131.559 19.7413 132.233 20.3573 132.717 21.1413C133.213 21.9129 133.462 22.8027 133.462 23.8107C133.462 24.8187 133.213 25.7147 132.717 26.4987C132.233 27.2702 131.559 27.88 130.693 28.328C129.841 28.776 128.86 29 127.753 29ZM127.753 25.8267C128.097 25.8267 128.402 25.7396 128.67 25.5653C128.95 25.3911 129.166 25.1547 129.319 24.856C129.471 24.5449 129.548 24.1964 129.548 23.8107C129.548 23.4124 129.471 23.064 129.319 22.7653C129.166 22.4542 128.95 22.2116 128.67 22.0373C128.402 21.8631 128.097 21.776 127.753 21.776C127.397 21.776 127.079 21.8631 126.799 22.0373C126.531 22.2116 126.315 22.4542 126.149 22.7653C125.997 23.064 125.92 23.4124 125.92 23.8107C125.92 24.1964 125.997 24.5449 126.149 24.856C126.315 25.1547 126.531 25.3911 126.799 25.5653C127.079 25.7396 127.397 25.8267 127.753 25.8267Z" fill="white"/>
<path d="M139.689 29C138.658 29 137.735 28.776 136.92 28.328C136.118 27.88 135.482 27.2702 135.011 26.4987C134.553 25.7147 134.324 24.8187 134.324 23.8107C134.324 22.8027 134.553 21.9129 135.011 21.1413C135.482 20.3573 136.118 19.7413 136.92 19.2933C137.735 18.8453 138.658 18.6213 139.689 18.6213C140.605 18.6213 141.451 18.7582 142.228 19.032C143.004 19.3058 143.634 19.704 144.118 20.2267L142.018 22.6533C141.878 22.504 141.712 22.3671 141.521 22.2427C141.331 22.1182 141.114 22.0249 140.872 21.9627C140.63 21.888 140.35 21.8507 140.032 21.8507C139.65 21.8507 139.313 21.9316 139.02 22.0933C138.74 22.2551 138.524 22.4853 138.371 22.784C138.219 23.0702 138.142 23.4062 138.142 23.792C138.142 24.1653 138.212 24.5013 138.352 24.8C138.505 25.0862 138.721 25.3164 139.001 25.4907C139.294 25.6649 139.638 25.752 140.032 25.752C140.35 25.752 140.63 25.7209 140.872 25.6587C141.114 25.5964 141.331 25.5093 141.521 25.3973C141.712 25.2729 141.878 25.1298 142.018 24.968L144.099 27.4133C143.628 27.9236 143.004 28.3156 142.228 28.5893C141.451 28.8631 140.605 29 139.689 29Z" fill="white"/>
<path d="M149.153 26.0133L147.244 23.6613L151.96 18.8267H157L149.153 26.0133ZM145.354 28.8133V15H149.23V28.8133H145.354ZM152.303 28.8133L148.905 24.128L151.616 22.224L156.733 28.8133H152.303Z" fill="white"/>
<defs>
<linearGradient id="paint0_linear_1_207" x1="38.1168" y1="22.9271" x2="44.7746" y2="22.9271" gradientUnits="userSpaceOnUse">
<stop offset="0.4147" stop-color="#3189B1"/>
<stop offset="0.5717" stop-color="#3194B1" stop-opacity="0.7313"/>
<stop offset="0.8461" stop-color="#31B1B1" stop-opacity="0.2613"/>
<stop offset="0.9987" stop-color="#31C4B1" stop-opacity="0"/>
</linearGradient>
<linearGradient id="paint1_linear_1_207" x1="36.972" y1="34.2861" x2="47.206" y2="34.2861" gradientUnits="userSpaceOnUse">
<stop stop-color="#7F5500"/>
<stop offset="0.1566" stop-color="#8A5C04" stop-opacity="0.8432"/>
<stop offset="0.4314" stop-color="#A76F10" stop-opacity="0.568"/>
<stop offset="0.7895" stop-color="#D68E22" stop-opacity="0.2095"/>
<stop offset="0.9987" stop-color="#F5A22E" stop-opacity="0"/>
</linearGradient>
<linearGradient id="paint2_linear_1_207" x1="36.4316" y1="11.5807" x2="46.7722" y2="11.5807" gradientUnits="userSpaceOnUse">
<stop stop-color="#7F5500"/>
<stop offset="0.1566" stop-color="#8A5C04" stop-opacity="0.8432"/>
<stop offset="0.4314" stop-color="#A76F10" stop-opacity="0.568"/>
<stop offset="0.7895" stop-color="#D68E22" stop-opacity="0.2095"/>
<stop offset="0.9987" stop-color="#F5A22E" stop-opacity="0"/>
</linearGradient>
</defs>
</svg>
