<svg width="120" height="18" viewBox="0 0 120 18" fill="none" xmlns="http://www.w3.org/2000/svg">
<path fill-rule="evenodd" clip-rule="evenodd" d="M21 2.90668C20.2281 3.22828 19.395 3.44652 18.5251 3.53841C19.4195 3.03302 20.0933 2.25197 20.4242 1.29864C19.591 1.75808 18.6721 2.10266 17.6919 2.27495C16.9078 1.4939 15.7806 1 14.5432 1C12.1663 1 10.2305 2.81479 10.2305 5.04307C10.2305 5.36468 10.2672 5.66332 10.3407 5.96195C6.76313 5.78966 3.5776 4.18162 1.45799 1.7351C1.09043 2.33238 0.869895 3.02154 0.869895 3.76813C0.869895 5.16942 1.62952 6.40991 2.79347 7.13352C2.08285 7.11055 1.42124 6.92678 0.845391 6.62814C0.845391 6.63963 0.845391 6.6626 0.845391 6.67408C0.845391 8.6267 2.32789 10.2692 4.30047 10.6368C3.93291 10.7286 3.55309 10.7746 3.16103 10.7746C2.87923 10.7746 2.60968 10.7516 2.35239 10.7057C2.90373 12.3137 4.4965 13.4853 6.38331 13.5083C4.91307 14.5879 3.05076 15.2426 1.02917 15.2426C0.686114 15.2426 0.343057 15.2197 0 15.1852C1.91132 16.3338 4.17795 17 6.60385 17C14.5309 17 18.8681 10.8435 18.8681 5.50251C18.8681 5.33022 18.8681 5.15793 18.8559 4.97416C19.689 4.43431 20.4242 3.72218 21 2.90668V2.90668V2.90668Z" fill="white"/>
<path fill-rule="evenodd" clip-rule="evenodd" d="M104.184 0C102.864 0 102 0.855911 102 1.98146C102 3.08249 102.839 3.96437 104.133 3.96437H104.158C105.504 3.96437 106.341 3.08265 106.341 1.98146C106.316 0.855911 105.504 0 104.184 0ZM119.998 10.4225V16.9998H116.14V10.863C116.14 9.32142 115.582 8.26933 114.186 8.26933C113.119 8.26933 112.485 8.97836 112.206 9.66423C112.104 9.90943 112.078 10.2507 112.078 10.5939V16.9998H108.219C108.219 16.9998 108.271 6.60611 108.219 5.52924H112.078V7.15515C112.074 7.16089 112.07 7.16685 112.066 7.17277C112.061 7.1794 112.056 7.18599 112.052 7.19221H112.078V7.15515C112.59 6.37469 113.506 5.25977 115.555 5.25977C118.095 5.25972 119.998 6.8992 119.998 10.4225ZM106.092 16.9999H102.234V5.5293H106.092V16.9999Z" fill="white"/>
<path fill-rule="evenodd" clip-rule="evenodd" d="M69.0621 1H53.9379C53.4199 1 53 1.41992 53 1.93793V17.0621C53 17.5801 53.4199 18 53.9379 18H62.0862V11.4257H59.8733V8.85224H62.0862V6.95879C62.0862 4.76345 63.4286 3.56759 65.3866 3.56759C66.0463 3.56615 66.7058 3.59941 67.3621 3.66724V5.96224H66.0138C64.9469 5.96224 64.7388 6.46638 64.7388 7.21086V8.84931H67.2888L66.9576 11.4228H64.7241V18H69.0621C69.5801 18 70 17.5801 70 17.0621V1.93793C70 1.41992 69.5801 1 69.0621 1Z" fill="white"/>
</svg>
